<?xml version="1.0" encoding="UTF-8"?>
<svg id="Layer_1" xmlns="http://www.w3.org/2000/svg" version="1.1" viewBox="0 0 1500 1800">
  <!-- Generator: Adobe Illustrator 29.0.1, SVG Export Plug-In . SVG Version: 2.1.0 Build 192)  -->
  <defs>
    <style>
      .st0 {
        fill: #70a090;
      }

      .st1 {
        fill: #ffd1ab;
      }

      .st2 {
        fill: #fff;
      }

      .st3 {
        fill: #5e472b;
      }

      .st4 {
        fill: #a82c35;
      }
    </style>
  </defs>
  <rect id="background" class="st0" width="1500" height="1800"/>
  <g id="cup">
    <path class="st2" d="M308.7,894.5s16-19.5,62.6-26c46.7-6.5,398.3-52.6,756.4.6,42.4,6.7,96.5,24.5,48.6,71.3-17.3,16.9-34.2,34.5-42.7,57.6-11.8,31.9-25.1,67.7-36,117-12.6,57.1-27.7,114.6-51.1,168.3-25,57.3-68,126.4-120.6,161.4-62.4,41.4-166.6,41.2-238.4,33.5-60.6-6.5-113.9-32.5-152.2-80.1-36.3-45.2-70.9-112.6-90.4-168.4-18.6-67.8-35.5-132.1-44.3-162.2-7.1-24.2-15.2-48.6-27.6-70.7-14-24.8-35.1-44.9-54-66-4.7-5.2-9.5-10.6-12.1-17.1-3-7.4-3.2-13.1,1.8-19.1h0Z"/>
    <path class="st4" d="M881.7,1437.3c-2.3,3.5-7.9,1.5-7.3-2.7,0-.3,0-.6.1-.9,1.9-16.8-1.5-70.6-1.8-98.1-.7-68.3,24.5-125.6,50.1-187.7,0-.2.1-.3.2-.5,2.4-9.2,6.2-7.1,7.6-5.1,1.5,2.1,21.9,57.3,25.4,102.8,2.5,31.9-.6,70.7-16,99.3-16.5,30.7-50.2,80.4-58.2,92.5,0,.1-.2.2-.2.4h0Z"/>
    <path class="st4" d="M636,1437.3c2.3,3.5,7.9,1.5,7.3-2.7,0-.3,0-.6-.1-.9-1.9-16.8,1.5-70.6,1.8-98.1.7-68.3-24.5-125.6-50.1-187.7,0-.2-.1-.3-.2-.5-2.4-9.2-6.2-7.1-7.6-5.1-1.5,2.1-21.9,57.3-25.4,102.8-2.5,31.9.6,70.7,16,99.3,16.5,30.7,50.2,80.4,58.2,92.5,0,.1.2.2.2.4h0Z"/>
    <path class="st4" d="M828.7,1278.9c-19.9,2.8-38.8,11.6-53.7,24.9,0-6.4,0-12.9,0-19.3,8.5-15.9,26.9-25.8,44.8-24,1.3,0,2.6-.9,2.7-2.2.1-1.4-.9-2.6-2.2-2.7-17.2-1.6-34.8,6.4-45.3,20-.2-16.3-.7-32.5-1.5-48.7,0-1.4-1.2-2.4-2.6-2.3-1.4,0-2.4,1.2-2.3,2.6.8,15.4,1.3,30.8,1.5,46.2-8.1-13-20.1-23.4-34.2-29.4-1.2-.5-2.7,0-3.2,1.3-.5,1.3,0,2.7,1.3,3.2,15.9,6.8,29.1,19.7,36.2,35.4,0,5.4,0,10.8,0,16.2-9.5-14.9-24.7-26.1-41.9-30.5-1.3-.3-2.7.5-3,1.8-.3,1.3.5,2.7,1.8,3,18.5,4.7,34.9,18.4,43,35.7,0,6.2-.2,12.4-.4,18.6-11-16.3-27.3-29.3-45.7-36.2-1.3-.5-2.7.2-3.2,1.4-.5,1.3.2,2.7,1.4,3.2,19.3,7.2,47.1,39.6,47.1,39.6-.1,3.4-.2,6.8-.4,10.1-12.9-14.3-29.9-24.6-48.6-29.4-1.3-.3-2.7.5-3,1.8-.3,1.3.5,2.7,1.8,3,19.4,4.9,36.9,16.2,49.4,31.7-.3,6.6-.7,13.3-1.1,19.9-13.8-17.7-33.7-30.6-55.5-35.7-1.3-.3-2.7.5-3,1.8-.3,1.3.5,2.6,1.8,3,22.6,5.3,43,19.4,56.1,38.5-.8,11.2-1.7,22.4-2.8,33.5-.1,1.4.9,2.6,2.2,2.7,0,0,.2,0,.2,0,1.3,0,2.3-.9,2.4-2.2,1.2-11.8,2.1-23.7,3-35.6,9.4-16.4,29.3-26.1,47.9-23.3,1.4.2,2.6-.7,2.8-2.1.2-1.3-.7-2.6-2.1-2.8-17.8-2.7-36.5,4.9-48,18.6.4-5.6.6-11.2.9-16.8,9.3-18,31.8-28.5,51.5-23.9,1.3.3,2.6-.5,3-1.8.3-1.3-.5-2.6-1.8-3-19-4.4-40.1,3.7-52.2,19,.1-3,.2-5.9.3-8.9,11.7-17.1,31.4-28.8,51.9-30.8,1.4-.1,2.3-1.3,2.2-2.7-.1-1.4-1.3-2.3-2.7-2.2-19.6,1.9-38.4,12.1-51.2,27.2.1-5.1.2-10.3.3-15.4,14.7-14.5,34-24,54.5-26.9,1.3-.2,2.3-1.4,2.1-2.8-.2-1.3-1.4-2.3-2.8-2.1h0Z"/>
    <path class="st4" d="M545.4,1382.4c-.2-.2-8.3-8.5-19.4-26,2-6.3,3.1-12.8,3.1-19.5,0-1.4-1.1-2.5-2.4-2.5h0c-1.4,0-2.5,1.1-2.5,2.4,0,4.7-.6,9.3-1.7,13.8-2.6-4.4-5.4-9.3-8.3-14.7,0,0,2.7-14.2,7.7-19.1,1-1,1-2.5,0-3.5-.9-1-2.5-1-3.5,0-4.1,4-7,9.2-8.3,14.8-2-4-4-8.3-6-12.8,0,0,2-18.4,7.9-25.2.9-1,.8-2.6-.2-3.5s-2.6-.8-3.5.2c-4.5,5.2-7.4,11.6-8.5,18.4-1.7-4.1-3.4-8.5-5.1-13,.7-7.4,3.6-14.6,8.2-20.4.8-1.1.7-2.6-.4-3.5-1.1-.8-2.6-.7-3.5.4-3.4,4.3-5.9,9.3-7.5,14.5-1.3-3.8-2.6-7.6-3.9-11.6.2-8.3,4.7-16.5,11.6-21,1.1-.8,1.4-2.3.7-3.4-.8-1.1-2.3-1.4-3.4-.7-5.5,3.6-9.6,9.1-11.9,15.2-1.4-4.7-2.7-9.6-4-14.5h.4c.4-7.7,4.2-15,10.2-19.7,1.1-.8,1.3-2.4.4-3.5-.8-1.1-2.4-1.3-3.5-.4-4.5,3.5-8,8.3-10,13.7-3-12.7-5.8-26.2-8.1-40.7-.2-1.3-1.5-2.3-2.8-2-1.3.2-2.3,1.5-2,2.8,1.8,11.5,4,22.4,6.3,32.8-3.1-3.8-6.7-7.3-10.7-10.3-1.1-.8-2.6-.6-3.4.5-.8,1.1-.6,2.6.5,3.4,7.4,5.5,13.2,12.7,17.1,21,1.3,5,2.6,9.9,3.9,14.6-3.9-4.3-8.2-8.2-13-11.4-1.1-.8-2.7-.4-3.4.7-.8,1.1-.4,2.7.7,3.4,8.1,5.4,15,12.8,19.9,21.3h0c1.3,4.1,2.7,8.1,4,12-3.9-2.9-8.3-5.1-12.9-6.5-1.3-.4-2.7.4-3.1,1.7-.4,1.3.4,2.7,1.7,3.1,6.7,2,17.8,11.3,17.8,11.3,1.3,3.4,2.6,6.7,3.9,10-3.8-2.2-8-3.7-12.4-4.1-1.3-.1-2.6.9-2.7,2.2-.1,1.4.9,2.6,2.2,2.7,6.6.6,12.9,4.2,17.1,9.3,1.7,3.9,3.4,7.6,5.1,11.2-2.2-1.2-4.4-2.3-6.8-3.1-1.3-.4-2.7.3-3.1,1.6-.4,1.3.3,2.7,1.6,3.1,5.2,1.7,9.8,4.7,13.5,8.7,1.8,3.5,3.7,6.9,5.4,10.1-.8-.4-1.6-.7-2.4-1.1-.9-.4-1.8-.8-2.8-1.3-1.2-.6-2.7,0-3.3,1.2s0,2.7,1.2,3.3c.9.4,1.9.9,2.8,1.3,3.7,1.7,7.2,3.3,9.9,5.8,12.4,20.2,21.8,29.7,22,29.9.5.5,1.1.7,1.7.7s1.3-.2,1.8-.7c1-1,.9-2.5,0-3.5h0Z"/>
    <path class="st4" d="M1054.7,1223.9c1.1-.8,1.3-2.4.5-3.4-.8-1.1-2.4-1.3-3.4-.5-4,3-7.6,6.5-10.7,10.3,2.3-10.4,4.4-21.3,6.3-32.8.2-1.3-.7-2.6-2-2.8-1.3-.2-2.6.7-2.8,2-2.3,14.5-5.1,28-8.1,40.7-2.1-5.3-5.5-10.2-10-13.7-1.1-.8-2.6-.6-3.5.4-.8,1.1-.6,2.6.4,3.5,6,4.7,9.8,12,10.2,19.6h.4c-1.3,5-2.6,9.9-4,14.6-2.3-6.1-6.4-11.5-11.9-15.1-1.1-.8-2.7-.4-3.4.7-.8,1.1-.4,2.7.7,3.4,6.9,4.6,11.3,12.8,11.6,21-1.3,4-2.6,7.8-3.9,11.6-1.6-5.2-4.1-10.2-7.5-14.5-.8-1.1-2.4-1.3-3.5-.4-1.1.8-1.3,2.4-.4,3.5,4.6,5.8,7.4,13,8.2,20.4-1.7,4.5-3.4,8.9-5.1,13-1.1-6.7-4-13.2-8.5-18.3-.9-1-2.5-1.1-3.5-.2-1,.9-1.1,2.4-.2,3.5,5.9,6.8,7.9,25.2,7.9,25.2-2,4.5-4,8.7-6,12.7-1.3-5.5-4.2-10.7-8.3-14.7-1-1-2.5-.9-3.5,0-1,1-.9,2.5,0,3.5,5,4.9,7.9,12,7.7,19.1h0c-2.8,5.4-5.6,10.3-8.2,14.7-1.1-4.5-1.7-9.1-1.7-13.8,0-1.4-1.1-2.4-2.5-2.4h0c-1.4,0-2.5,1.1-2.4,2.5,0,6.6,1.1,13.1,3.1,19.4-11.1,17.5-19.2,25.8-19.4,26-1,1-1,2.5,0,3.5.5.5,1.1.7,1.7.7s1.3-.2,1.7-.7c.2-.2,9.5-9.7,21.9-29.7,2.5-2.3,6.3-3.9,10-5.4,1.5-.6,3-1.3,4.4-1.9,1.2-.6,1.7-2.1,1.2-3.3-.6-1.2-2.1-1.7-3.3-1.2-1.3.6-2.7,1.2-4.2,1.8-1,.4-2,.8-3,1.3,1.9-3.3,3.9-6.9,5.8-10.8,3.7-4,8.4-6.9,13.5-8.7,1.3-.4,2-1.8,1.6-3.1-.4-1.3-1.8-2-3.1-1.6-2.4.8-4.7,1.8-6.8,3.1,1.7-3.6,3.4-7.3,5.1-11.2,4.2-5.2,10.5-8.7,17.1-9.3,1.4-.1,2.3-1.3,2.2-2.7s-1.4-2.3-2.7-2.2c-4.4.4-8.6,1.9-12.4,4.1,1.3-3.2,2.6-6.5,3.9-10,0,0,11-9.3,17.8-11.3,1.3-.4,2-1.8,1.7-3.1-.4-1.3-1.8-2.1-3.1-1.7-4.6,1.4-9,3.6-12.9,6.5,1.4-3.9,2.7-7.9,4-12,0,0,11.8-15.8,19.9-21.3,1.1-.8,1.4-2.3.7-3.4-.8-1.1-2.3-1.4-3.4-.7-4.8,3.2-9.2,7.1-13,11.4,1.3-4.7,2.7-9.6,3.9-14.6,3.9-8.3,9.8-15.5,17.1-21h0Z"/>
    <g>
      <path d="M381.2,1015.1c29.7,9.7,60.4,15.4,91.3,19.3,30.9,3.9,62,5.8,93.2,7.7,31.1,1.9,62.3,3.4,93.4,4.6l23.4.7,11.7.4,11.7.2,23.4.4h23.4c62.3.5,124.7-1.9,186.8-7.1,7.8-.5,15.5-1.5,23.3-2.2,7.7-.8,15.5-1.5,23.2-2.4,15.5-2,31-3.6,46.3-6.1,7.7-1.1,15.4-2.2,23.1-3.4l23-3.9,11.5-2,11.5-2.3,22.9-4.5c-60.9,13.5-122.7,23.1-184.8,28.7-62.1,5.6-124.6,8-186.9,7.8l-23.4-.2-23.4-.5-11.7-.2-11.7-.4-23.4-.8c-31.2-1.3-62.3-2.8-93.4-5-31.1-2.1-62.3-4.2-93.2-8.4-30.9-4.2-61.6-10.4-91.2-20.4h0Z"/>
      <path d="M760.6,1051.4c-2.7,0-5.4,0-8.1,0l-23.4-.2-35.1-.7-35.1-1.1c-34.8-1.5-64.1-2.9-93.5-5-33.2-2.2-63.1-4.4-93.2-8.4-34.8-4.7-64.7-11.4-91.3-20.5h0s0,0,0,0c-.3,0-.4-.4-.3-.6,0-.3.4-.4.6-.3,26.6,8.7,56.5,15,91.2,19.2,30.5,3.8,61.4,5.8,93.1,7.7,29.5,1.8,60.1,3.3,93.4,4.6l35,1.1,35,.6h23.4c62.1.5,124.9-1.9,186.7-7.1,5.4-.4,10.8-.9,16.1-1.5,2.4-.2,4.8-.5,7.2-.7,2.7-.3,5.5-.6,8.3-.8,4.9-.5,10-1,15-1.6,4.4-.6,8.8-1.1,13.2-1.6,10.9-1.3,22.2-2.7,33.2-4.4,2.7-.4,5.4-.8,8.2-1.2,4.9-.7,10-1.4,15-2.2l34.6-5.9,34.4-6.8c.3,0,.5.1.6.4s-.1.5-.4.6c-60.5,13.4-122.7,23.1-184.9,28.7-57.2,5.2-117.4,7.8-178.9,7.8h0ZM457.2,1032.8c5,.8,10,1.5,15.2,2.2,30.1,4,60,6.2,93.2,8.4,29.4,2.1,58.6,3.5,93.4,5l35.1,1.1,35.1.7,23.4.2c64.3.2,127.2-2.4,186.9-7.8,35.2-3.2,70.4-7.7,105.3-13.4-1.5.2-2.9.4-4.4.6-2.7.4-5.4.8-8.2,1.2-11,1.7-22.3,3.1-33.2,4.5-4.4.5-8.8,1.1-13.1,1.6-5,.6-10.1,1.1-15,1.6-2.8.3-5.5.5-8.3.8-2.4.2-4.8.5-7.2.7-5.3.5-10.7,1.1-16.1,1.5-61.8,5.2-124.7,7.7-186.8,7.2h-23.4c0,0-35.1-.7-35.1-.7l-35.1-1.1c-33.3-1.3-63.9-2.8-93.4-4.6-31.7-1.9-62.7-3.9-93.2-7.7-5.2-.6-10.3-1.3-15.3-2.1h0Z"/>
    </g>
    <path class="st0" d="M483.2,1126c-.9-.9-2.1-1.4-3.6-1.1-2,.4-4.1,2-6.4,4.8-.9,1.2-2.8,1.1-3.5-.2-2.9-4.7-6.3-9.2-10-13.4-2-2.2-4.2-4.2-6.3-6.3-1.2-1.2-2.8-2.9-4.6-3-1.2,0-2.2.7-3.1,1.3-3.5,2.3-6.7,5-9.7,7.9-.9.9-2.4.8-3.2-.2-1.9-2.5-3.9-5-6-7.3-1.1-1.2-2.2-2.4-3.3-3.5-1-1-1.9-2.2-3.2-2.7-1.5-.6-3.2.3-4,1.5-.9,1.3,0,3.3.2,4.7.3,1.8.7,3.6,1.1,5.3.7,3.2,1.4,6.3,2.1,9.5,0,0,0,.2,0,.3,3.7,15.6,7.7,28.9,12.4,40.7,3.5,8.8,7.2,16.2,11.5,22.8,2.4,3.6,5,7.1,7.7,10.2l.4.5c2,2.3,4.5,5.3,8.6,5.5,2.3.1,5.5-.6,7.4-2.5.1.2.3.4.4.5,1.7,2.3,3.8,4.9,6.4,7.1,1.5,1.2,3.1,1.8,4.7,1.8s.3,0,.5,0c1.1,0,2.3-.5,3.4-1.3,8-5.6,9.1-20.2,9.3-24.5v-.2c.5-13.4.4-26.9-2.5-40.1-.9-4.1-2.1-8-3.6-11.9-.7-1.9-1.5-4.5-2.9-6h0ZM468.3,1137.1c.4.7,1,1.1,1.8,1.2h0l.2,39.2c0,.6,0,1.2,0,1.9,0,2.6-3.7,3-4.3.4-2.1-9.6-4.1-19.3-6-28.8-1.8-8.9-3.6-18-5.6-27-.5-2.2,2.3-3.6,3.8-1.9,5.4,6.5,8.9,12.6,10.1,15.1h0ZM444.2,1115.3c1.2-1,3.1-.3,3.5,1.2,2.7,11.8,5.2,23.8,7.5,35.5,1.6,8.2,3.3,16.6,5.1,24.9.5,2.3-2.5,3.6-3.9,1.8-11-15.2-18-34.4-19.9-55.1,0-.6.2-1.3.6-1.7,2.6-2.7,5-4.9,7.1-6.5h0ZM464.1,1197.1c-.6.7-2.3,1.2-3.7,1.2-1.9,0-3.5-2-5.1-3.8l-.5-.5c-2.6-3-5.1-6.2-7.3-9.7-4.1-6.2-7.7-13.4-11-21.9-4.6-11.6-8.6-24.7-12.2-40-.3-1.1-.5-2.2-.8-3.4-.5-2.3,2.4-3.7,3.8-1.8,1.6,2.1,3,3.9,3.7,4.9.2.3.4.7.4,1.1,2.5,28.2,14,53.8,32,71.1.4.4.7,1,.7,1.6,0,.3,0,.5,0,.7,0,.2,0,.3-.1.5h0ZM487.3,1183.8v.2c-.3,7.8-2.3,17.3-7.2,20.6-.4.3-.7.4-1,.5-.4,0-1-.2-1.7-.7-2-1.6-3.7-3.6-5.6-6.2-.2-.3-.5-.7-.7-1-.1-.2-.3-.4-.4-.6,4.1-5.2,4.5-12,4.5-19.1l-.2-40.8c0-.3,0-.6-.2-.9,1-1.5,1.9-2.7,2.6-3.5,1-1.2,3-.9,3.6.5,7.4,17.1,6.5,41.4,6.2,51h0Z"/>
    <path class="st0" d="M1091.3,1103c-4.6,4-10.1,11.1-12.8,14.8-2.6-2.7-5.5-5.1-8.4-7.5-2.2-1.8-5.1-4.6-8-2.6-3,2-5.8,4.8-8.3,7.6-4.6,5-8.7,10.5-12.1,16.4-.1.2-.3.5-.4.7.4-.7-4.3-5.1-4.8-5.6-1.8-1.5-4.6-3-6.7-1.1-2.1,1.9-3.2,5.7-4.1,8.5-1.1,3.2-2.5,8.4-3.2,11.7-2.4,12.2-2.6,24.6-2.1,37,0,.4,0,.8,0,1.2v.2c.2,4.3,1.3,18.9,9.3,24.5,1.1.8,2.3,1.2,3.4,1.3.2,0,.3,0,.5,0,1.6,0,3.2-.6,4.7-1.8,2.6-2.1,4.7-4.8,6.4-7.1.1-.2.3-.3.4-.5,1.9,1.9,5.1,2.6,7.4,2.5,4-.2,6.5-3.1,8.6-5.5l.4-.5c2.7-3.2,5.3-6.6,7.7-10.2,4.3-6.5,8-14,11.5-22.8,4.7-11.8,8.7-25.1,12.4-40.7,1.2-5.1,2.6-11.1,3.7-17.4.2-1.3-.3-2.7-1.5-3.4h0c-1.2-.8-2.8-.7-3.9.3h0ZM1076.1,1122.5c-2.1,24.6-11.4,47.1-25.9,63.4,2.6-11.3,4.9-22.8,7.2-34,2.6-12.8,5.2-25.9,8.3-38.7,2.5,1.8,6.4,4.9,10.5,9.3h0ZM1059.9,1116.1c-2.7,11.6-5.1,23.4-7.4,34.9-2.6,13.1-5.4,26.7-8.5,39.8-1.6-3.7-1.8-8.4-1.8-13.3l.2-39.2s7.1-12.1,17.5-22.2h0ZM1040.6,1198.2c-1.5,2.1-3.4,4.4-5.6,6.2-.6.5-1.2.8-1.7.7-.3,0-.6-.2-1-.5-4.9-3.4-6.9-12.9-7.2-20.6v-.2c-.4-10.2-1.4-36.7,7.5-53.8.9.6,2.5,2,5,5.7-.1.3-.4,41.7-.4,41.7,0,7.1.3,13.9,4.5,19.1-.1.2-.3.4-.4.6-.2.4-.5.7-.7,1h0ZM1088.2,1122.4c-3.6,15.3-7.6,28.4-12.2,40-3.3,8.5-7,15.6-11,21.9-2.3,3.4-4.7,6.7-7.3,9.7l-.5.5c-1.6,1.8-3.2,3.7-5.1,3.8-1.4,0-3.1-.5-3.7-1.2-.2-.2-.2-.3-.1-.5,0-.3.1-.8,0-1.5,18.6-17.5,30.5-43.7,32.9-72.5,1.3-1.7,5.5-7.6,9.8-12.2-.9,4.3-1.8,8.4-2.7,12h0Z"/>
    <path class="st0" d="M839.2,1141.2c-1.6-2.2-5.3-2.6-7.7-2.8-8.9-.5-18.2,3.3-25,8.8-.2.1-13.4-9.5-14.5-10.2-3.7-2.3-7.6-4.5-11.5-6.4-3.9-2-9-5.7-13.6-4.6-2.5.6-5.1,2-7.5,3.1-9,4.2-17.7,10.1-24.2,17.6,0,0-1.9-1.3-2-1.4-.8-.5-1.7-1-2.6-1.4-2.3-1.1-4.7-2-7.2-2.6-3.3-.9-6.7-1.3-10-1.6-2.5-.2-5-.2-7.4-.1-1.7,0-3.6,0-5.3.5-2.1.7-3.1,3.2-2.6,5.3.2.6.3,1.3.5,1.9.3,1.3.7,2.6,1,3.9.5,1.7.9,3.4,1.4,5.1.6,2,1.2,4.1,1.8,6.1.7,2.3,1.4,4.6,2.2,6.8.8,2.5,1.7,4.9,2.6,7.4.9,2.6,1.9,5.2,3,7.7,1.1,2.6,2.2,5.2,3.3,7.8,1.2,2.6,2.4,5.2,3.7,7.7,1.3,2.5,2.6,5,4,7.4,1.4,2.4,2.8,4.7,4.4,6.9,1.5,2.1,3.1,4.2,4.7,6.2,1.6,1.9,3.3,3.6,5.1,5.2,1.7,1.5,3.5,2.9,5.4,4.1,1.8,1.1,3.7,2.1,5.7,2.7,0,0,0,0,0,0,2.4.8,4.8,1.2,7.2,1.2,4.8,0,9.6-1.6,14.4-4.7h0c0,0,3.9-.1,3.9-.1l.2-.2c.1-.1.3-.3.4-.4,6,2.9,17.1,6.8,26.9,2.4,5.4-2.4,9.1-9.1,12-14,4.8-8.2,8.8-17,12.4-25.8,3.7-9,7-18.1,9.9-27.3,1.2-3.9,2.4-7.9,3.5-11.8.8-2.9,3.2-7.2,1.4-10.2,0-.1-.1-.2-.2-.3h0ZM832.9,1145.2c-5.3,24.9-25.5,75.2-35.3,79.5-6.6,3-14.6.6-19.4-1.5,17.3-19.2,28.4-44,31.3-70,8.8-7.7,19-8.8,23.4-8.1h0ZM802.9,1152.8c-2.9,25.2-13.8,49.1-30.8,67.4v-86.3c15.8,7.1,27.2,15.9,30.8,18.9ZM763.5,1224.6c-4.9,2.7-9.6,3.3-14.3,1.8-24-7.9-40.5-66.1-44.1-80.1,16.3-.8,24,3.9,26.8,6.3,0,26.9,11.8,53.7,31.6,72.1ZM738.5,1153.1c8.7-10.8,21.1-17,27-19.5v83.7c-16.7-16.9-26.8-40.7-27-64.3h0Z"/>
  </g>
  <g id="legs">
    <path class="st1" d="M477,342.5s1.3-17.3,7-20.8,15.2,8.7,20.3,23.7c5,15,6.4,25.7,10.8,34.4,4.4,8.7,14.5,24.5,23.4,34.8s19.2,21.3,14.1,29.7-17.1,30.4-14,45.6c3.1,15.2,5,28.3,15,44.4,10,16.2,46.1,73.7,50.9,83s25.9,75.1,22.2,107.8c0,0,87.2,84.2,98.5,94.1l11.2,10-82.5,66.9s-24.4-34.6-34.8-56.1c-10.4-21.5-22.9-40-37.3-80.1s-27.5-66-34.2-97.2c-6.7-31.2-60.3-246.1-64.3-267.3-4-21.2-6.3-52.8-6.3-52.8h0Z"/>
    <path class="st1" d="M750.1,843.5l32.6-27.1s-4.1-8.8-12.9-21.6c-8.7-12.8-104.4-76.5-113.1-85.5-.7-63.7-54.3-138.6-73.6-175.1-19.2-36.5-17.5-58.9-16.4-74.2,1.1-15.2,14.8-28.6,15.1-35.1.3-6.5-17.4-28.6-24.8-37.1-7.4-8.5-7.5-14.2-11.9-27-4.4-12.8-15.6-37.6-23-42s-7.1,9.7-5.5,21.3-1.7,39.7-1.7,39.7c-.3,2.6,5.8,10.2,5.8,10.2,5,8.1,11.6,17.6,17.7,24.6,9,10.3,19.2,21.3,14.1,29.7s-17.1,30.4-14,45.6c3.1,15.2,5,28.3,15,44.4,10,16.2,46.1,73.7,50.9,83s25.9,75.1,22.2,107.8c0,0,52.9,51,81.6,78.3l41.9,40.1h0Z"/>
    <g>
      <path d="M655.2,904.6c.7,1.5,2,3.2,3.9,5.2,16.8,6.4,35.8,5.2,54.1,5.3,17.4,0,34.8,0,52.3-.3,12.6-.3,54,4.5,65.5-9.1-3.5-8.4-9.5-26.9-15.2-38-27.6-53-39.3-68.4-45.8-71.4-22.1,1-33.7,15.7-38.3,22.6-4.7,6.9-4.2,2.7-6.5,2.5-50.4,3.5-62.8,29.4-69.7,54.9-6.9,25.5-.3,28.4-.3,28.4h0Z"/>
      <path d="M790.8,915.9c-5.7,0-11.1-.2-15.7-.4-3.9-.1-7.3-.3-9.6-.2-18.5.4-36.8.4-52.3.3-2.7,0-5.4,0-8.2,0-15.6,0-31.7.2-46.1-5.3h-.2c-1.9-2.2-3.2-3.9-3.9-5.3-1.1-.7-6.1-5.4.2-28.9,7.2-26.6,20.7-51.8,70.1-55.2.9,0,1.5.6,1.9,1,.4.3.6.5.8.5.6,0,1.8-1.3,3.4-3.7,9.5-14.2,22.9-22.1,38.7-22.8h.1s.1,0,.1,0c5.3,2.4,15.4,12.8,46,71.6,3.9,7.5,7.9,18.5,11.1,27.2,1.6,4.4,3,8.1,4.1,10.8v.3c.1,0,0,.2,0,.2-7.1,8.3-24.8,9.9-40.6,9.9h0ZM766.6,914.3c2.3,0,5.2.1,8.6.2,17.2.6,45.8,1.7,55.3-8.9-1.1-2.7-2.5-6.4-4-10.6-3.2-8.8-7.2-19.7-11.1-27.1-23.7-45.5-37.7-67.5-45.4-71.1-15.4.8-28.5,8.5-37.8,22.4-1.9,2.8-3.1,4.1-4.1,4.2-.7,0-1.2-.4-1.6-.8-.4-.3-.7-.7-1.2-.7-51.1,3.6-62.5,30-69.1,54.5-6.6,24.5-.7,27.8-.6,27.8h.2c0,0,0,.2,0,.2.6,1.3,1.8,3,3.7,5,14.2,5.4,30.2,5.3,45.7,5.2,2.7,0,5.5,0,8.2,0,15.5,0,33.8.1,52.2-.3.4,0,.7,0,1.1,0h0Z"/>
    </g>
    <path d="M663.1,890.1c-.4,0-.9-.2-1.2-.6-.5-.6-.4-1.6.2-2.1l71.8-58.3-9.9-8.8c-11.1-9.9-97.7-93.3-98.5-94.2-.3-.3-.5-.8-.4-1.2,3.7-32.6-17.8-98.6-22.1-106.9-3.8-7.6-28.5-47.1-43.2-70.6-3.2-5.1-5.8-9.3-7.6-12.2-9.2-14.8-11.7-27.3-14.3-40.6-.3-1.4-.6-2.9-.9-4.4-3.3-16.4,10-39.9,14.2-46.7,4.3-7-4.3-16.9-12.6-26.4l-1.3-1.5c-8.7-10-18.9-25.7-23.6-35.1-2.7-5.2-4.2-11.2-6.1-18.1-1.3-4.8-2.8-10.3-4.8-16.5-4.7-14.1-12.7-23.5-16.9-23.2-.8,0-1.5-.6-1.6-1.4,0-.8.6-1.5,1.4-1.6,7.2-.5,15.7,12.6,20,25.3,2.1,6.3,3.6,11.8,4.9,16.7,1.8,6.7,3.3,12.5,5.9,17.5,4.7,9.2,14.7,24.6,23.2,34.5l1.3,1.5c9,10.3,18.4,21,12.9,29.9-4,6.6-16.9,29.2-13.8,44.5.3,1.5.6,3,.9,4.4,2.7,13.5,5,25.2,13.9,39.6,1.8,2.9,4.5,7.2,7.6,12.2,14.7,23.6,39.4,63.2,43.3,70.9,4.4,8.7,25.9,73.8,22.4,107.9,7.3,7.1,87.3,84.1,97.9,93.6l11.2,10c.3.3.5.7.5,1.2s-.2.9-.6,1.1l-73.2,59.4c-.3.2-.6.3-.9.3h0Z"/>
  </g>
  <g id="coffee">
    <path class="st3" d="M663,904.4c9,1.6,17.1,5.7,26,7.3,26.4,4.9,51.1-12.4,77.7-16.3,19.7-2.9,39.7,1.8,58.9,6.4,6.7,1.6,15,5.7,12.8,11.4-1.6,4.2-7.8,5.1-12.8,5.3-38,1.6-76,1.7-114,.2-18.7-.7-37.7-1.4-56.3-3.4-22.1-2.4-7.6-13.7,7.6-11.1h0Z"/>
    <g>
      <path d="M332.7,901.9c7.7,3.9,16,6.4,24.3,8.9,4.2,1.1,8.3,2.3,12.5,3.3l12.6,2.9c8.5,1.6,16.9,3.4,25.5,4.6,4.3.7,8.5,1.4,12.8,2l12.8,1.7c34.2,4.5,68.6,7,103.1,8.9,34.5,1.4,69,2.4,103.5,2.2h25.9c8.6-.1,17.3-.3,25.9-.5l51.8-1c69-1.1,138.1-2.2,207.1-4.5,34.5-1.2,69-2.7,103.4-5.2,17.2-1.2,34.4-2.8,51.5-4.7,17.1-2,34.2-4.6,51.2-7.9-16.9,3.5-34,6.3-51.1,8.5-17.1,2.2-34.3,4-51.5,5.3-34.4,2.7-68.9,4.3-103.4,5.6-69,2.5-138.1,3.9-207.1,5.3l-51.8.8c-8.6.1-17.3.3-25.9.3h-25.9c-34.5,0-69.1-1.1-103.6-2.7-34.5-2-68.9-4.6-103.2-9.3l-12.8-1.8c-4.3-.7-8.5-1.5-12.8-2.2-8.5-1.4-17-3.2-25.4-4.9l-12.6-3c-4.2-1-8.3-2.3-12.5-3.4-8.2-2.6-16.5-5.2-24.2-9.2h0Z"/>
      <path d="M665.6,938.9h-25.9c-30.4,0-63.2-.9-103.6-2.7-41.7-2.4-73.5-5.3-103.2-9.3l-12.8-1.8c-2.8-.4-5.6-.9-8.3-1.4-1.5-.3-3-.5-4.5-.8-6.7-1.1-13.4-2.5-19.9-3.8-1.8-.4-3.7-.8-5.5-1.1l-12.6-3c-2.7-.7-5.4-1.4-8.1-2.2-1.5-.4-2.9-.8-4.4-1.2-8.1-2.6-16.5-5.2-24.3-9.2,0,0,0,0,0,0h0s0,0,0,0c-.2-.1-.3-.4-.2-.7.1-.2.4-.3.7-.2,7.7,3.9,16.1,6.4,24.2,8.8,1.5.4,2.9.8,4.4,1.2,2.6.7,5.4,1.5,8.1,2.1l12.6,2.9c1.8.4,3.7.7,5.6,1.1,6.5,1.3,13.2,2.6,19.9,3.6,1.5.2,3,.5,4.6.7,2.7.4,5.5.9,8.2,1.3l12.8,1.7c29.7,3.9,62.5,6.7,103.1,8.9,40.3,1.7,73.2,2.4,103.5,2.2h25.9c5.6,0,11.2-.2,16.7-.3,3.1,0,6.1-.1,9.2-.2l51.8-1h7.7c65.3-1.2,132.9-2.3,199.3-4.5,28.5-1,65.9-2.5,103.4-5.2,16.6-1.1,33.9-2.7,51.5-4.7,17.8-2.1,35-4.8,51.1-7.9.3,0,.5.1.6.4,0,.3-.1.5-.4.6,0,0,0,0,0,0h0c-16.1,3.3-33.3,6.2-51.1,8.5-17.6,2.2-35,4-51.6,5.3-36.4,2.9-72.7,4.5-103.5,5.6-68.5,2.5-138.2,3.9-205.5,5.2h-1.6s-51.8.8-51.8.8c-3.1,0-6.1,0-9.2.1-5.5,0-11.1.2-16.7.2h0ZM639.7,937.8h25.9c5.6,0,11.2,0,16.7-.1,3.1,0,6.1,0,9.2-.1l53.4-.8c67.4-1.3,137-2.7,205.5-5.2,30.7-1.2,67-2.8,103.4-5.6,5.8-.5,11.6-1,17.5-1.5-5.9.5-11.8,1-17.6,1.3-37.5,2.8-75,4.2-103.4,5.2-66.4,2.2-134,3.3-199.4,4.3h-7.7c0,.1-51.8,1.1-51.8,1.1-3.1,0-6.1.1-9.2.2-5.5.1-11.1.2-16.7.3h-25.9c-30.3.2-63.2-.5-103.5-2.1-40.6-2.2-73.4-5-103.1-8.9l-12.8-1.7c-1.4-.2-2.7-.4-4.1-.6,1.4.2,2.7.5,4.1.7l12.8,1.8c29.7,4.1,61.5,6.9,103.1,9.3,40.3,1.8,73.2,2.7,103.5,2.6h0Z"/>
    </g>
    <g id="coffee1" data-name="coffee">
      <path class="st3" d="M1043.5,927.2c-79.8,4.3-189.1,6.6-353.1,9.4-102.4.9-174.9-1-225.9-7.4,0,0-11.6-6.6-1.2-10.3,10.4-3.7,57-19.8,228.9-25.2s320.9,2,377.6,14.2c0,0,24.5,5.6,20.1,11-4.4,5.4-26.6,7.2-46.4,8.3h0Z"/>
      <path class="st3" d="M834.4,855.7c0,.1,1-6.7,3.8-8.9,2.8-2.2,6.2-3.7,8.5-6.4s2.7-7.5-.3-9.4c-3.5-2.2-7.9,1.4-9.8,5.1-2.5,4.9-3.5,10.6-2.8,16.1l.6,3.4h0Z"/>
      <path class="st3" d="M797.2,887.9c-.5-5.5-3.1-10.8-3.1-16.4,0-7,4.5-13.8,11-16.5,6.4-2.7,14.4-1.2,19.4,3.7,6.2,6,7.5,15.8,14,21.5,6.3,5.5,15.6,5.5,24,5s17.5-.9,24.3,4.1c4.3,3.2,7,9.3,4.3,13.9-2.9,4.9-9.7,5.3-15.4,5-22.1-.9-44.3-1.9-66.4-2.8-3.4-.1-16.1.5-16.9-4.2-.3-2,2.6-4.1,3.5-5.7,1.2-2.3,1.6-5.1,1.4-7.6Z"/>
      <path class="st3" d="M785.3,895.9c-6.1-7.7-13.4-15.9-23.2-16.7-14.5-1.1-26.2,15.1-40.7,13.8-6.7-.6-12.4-4.8-18-8.3s-12.4-6.7-18.9-4.9c-5,1.4-9,5.7-14.2,6.6-4.8.8-9.5-1.4-13.5-4.2s-7.4-6.3-11.7-8.5-9.8-3-13.8-.3c-3.9,2.7-5.2,8.1-4.1,12.8,1.1,4.6,4.3,8.5,7.7,11.7,6.4,6,14.2,10.4,22.6,12.8,16.8,4.7,34.7,5.2,52.2,5.5,13.5.3,27.1.5,40.4-2.1,13.3-2.6,25.9-8.4,35-18.4h0Z"/>
      <g>
        <path d="M840.3,903.7c8,.4,16,1,24,1.7,8,.8,16,1.6,23.9,3.3,2,.5,3.9,1,5.8,1.8.5.2.9.5,1.4.8.4.3,1,.8,1,1.7,0,.8-.5,1.4-1,1.7-.5.3-.9.6-1.4.9-3.8,1.7-7.8,2.4-11.8,3.2-7.9,1.4-15.9,2.3-23.9,3.1-16,1.6-32.1,2.4-48.1,3-16.1.6-32.1,1-48.2,1.1-32.1,0-64.3-.5-96.4-2.7-8-.6-16-1.2-24-2.1-8-.9-16-1.8-23.9-3.6-2-.5-3.9-1-5.8-1.8-.9-.4-1.9-.8-2.7-1.8-.4-.5-.3-1.4,0-1.9.4-.5.8-.8,1.3-1,1.9-1,3.8-1.5,5.8-2,2-.5,3.9-.8,5.9-1.2,7.9-1.3,15.9-2.1,23.9-2.7-8,.8-16,1.8-23.8,3.3-2,.4-3.9.8-5.9,1.3-1.9.5-3.9,1.1-5.5,2-.8.5-1.5,1.2-1.1,1.8.5.6,1.4,1.1,2.3,1.5,1.8.7,3.8,1.2,5.7,1.6,7.8,1.7,15.8,2.5,23.8,3.3,8,.8,16,1.3,24,1.8,32,1.8,64.2,2.4,96.3,2.2,32.1-.1,64.2-1,96.2-3.6,8-.7,16-1.5,23.9-2.8,3.9-.7,7.9-1.4,11.5-2.9.8-.4,1.7-1,1.7-1.5,0-.5-.9-1.1-1.7-1.5-1.7-.8-3.7-1.4-5.6-1.8-7.8-1.9-15.8-2.9-23.7-3.8-8-.9-16-1.6-24-2.2h0Z"/>
        <path d="M758.1,926.5c-35.9,0-65.3-.9-92.3-2.7-9-.6-16.8-1.3-24-2.1-8.5-1-16.2-1.9-23.9-3.7-1.8-.4-3.9-1-5.9-1.8l-.4-.2c-.8-.4-1.8-.8-2.5-1.8-.6-.7-.4-1.9.1-2.5.4-.5.9-.8,1.4-1.1,1.9-1,3.8-1.5,5.9-2,1.7-.4,3.5-.8,6-1.2,8.1-1.3,16.3-2.1,24-2.7v1c-7.5.8-15.6,1.7-23.7,3.3-2.4.5-4.2.9-5.8,1.3-1.8.5-3.8,1.1-5.4,2-.6.4-.9.7-1,.9h0c.4.6,1.2,1,2.1,1.4,1.7.7,3.5,1.1,5.6,1.6,7.8,1.7,16,2.5,23.7,3.3,7.2.7,15,1.3,24,1.8,30.1,1.7,61.6,2.4,96.2,2.2,37.5-.2,68.1-1.3,96.2-3.6,7.6-.7,15.7-1.4,23.8-2.8h.6c3.7-.8,7.5-1.4,10.8-2.9.8-.3,1.3-.8,1.4-1,0-.2-.6-.7-1.5-1-1.7-.8-3.7-1.3-5.5-1.8-7.6-1.8-15.2-2.8-23.6-3.8-7.2-.8-14.8-1.5-24-2.2v-1c9.3.5,16.9,1,24.1,1.7,8.5.8,16.2,1.6,24,3.3,1.9.4,4,1,5.9,1.9.5.3,1,.5,1.5.9.3.3,1.1.9,1.2,2,0,1.1-.8,1.8-1.1,2.1-.5.4-1,.7-1.5.9-3.6,1.6-7.3,2.3-10.9,3l-1,.2c-8.2,1.5-16.4,2.4-24,3.1-16.5,1.6-32.9,2.4-48.2,3-15.5.6-31.3.9-48.2,1.1-1.4,0-2.7,0-4.1,0h0ZM615.2,916.4c1,.3,1.9.5,2.8.7,7.7,1.8,15.3,2.7,23.8,3.6,7.2.8,15.1,1.5,24,2.1,28,1.9,58.6,2.7,96.3,2.7,16.9-.1,32.7-.5,48.2-1.1,15.2-.6,31.6-1.4,48.1-3,7.6-.7,15.8-1.6,23.9-3.1l1-.2c3.6-.7,7.2-1.4,10.7-3,.5-.2.9-.5,1.3-.8.4-.3.8-.7.8-1.3,0-.6-.5-1-.8-1.3-.4-.3-.8-.5-1.3-.8-1.9-.9-3.9-1.4-5.7-1.8-.8-.2-1.7-.4-2.5-.5.8.2,1.7.4,2.5.6,1.9.5,3.9,1,5.7,1.9.5.2,2.1,1,2,2,.1.9-1.8,1.8-2,1.9-3.4,1.5-7.3,2.2-11,2.9h-.6c-8.1,1.5-16.3,2.2-23.9,2.9-28.1,2.3-58.7,3.4-96.2,3.6-34.6.2-66.1-.5-96.3-2.2-8.9-.5-16.8-1.1-24-1.8-7.7-.8-16-1.6-23.8-3.3-1-.2-1.9-.4-2.8-.7h0Z"/>
      </g>
    </g>
    <path d="M638.9,902.8c-.3,0-.6,0-.8-.3-3.6-2.4-7.7-7.5-9.3-9.6l-.4-.5c-2.3-3-4.9-6.3-4.1-10.4,1.4-6.6,8.3-10.1,14.1-10.1h0c6.6,0,12.4,3.5,16.3,6.2,1.3.9,2.7,1.9,4,2.9,3.2,2.4,6.3,4.6,9.8,6.3.7.4,1.1,1.2.7,2-.4.7-1.2,1.1-2,.7-3.7-1.8-7.1-4.2-10.3-6.6-1.3-.9-2.6-1.9-3.9-2.8-3.5-2.4-8.9-5.6-14.6-5.6h0c-4.7,0-10.1,2.9-11.2,7.8-.6,2.7,1.5,5.4,3.5,7.9l.4.5c1.2,1.5,5.3,6.7,8.6,8.9.7.5.9,1.4.4,2.1-.3.4-.8.7-1.2.7h0Z"/>
  </g>
</svg>