<?xml version="1.0" encoding="UTF-8"?>
<!DOCTYPE svg PUBLIC "-//W3C//DTD SVG 1.1//EN" "http://www.w3.org/Graphics/SVG/1.1/DTD/svg11.dtd">
<!-- Creator: CorelDRAW -->
<svg xmlns="http://www.w3.org/2000/svg" xml:space="preserve" width="18.3333in" height="13.3333in" version="1.1" style="shape-rendering:geometricPrecision; text-rendering:geometricPrecision; image-rendering:optimizeQuality; fill-rule:evenodd; clip-rule:evenodd"
viewBox="0 0 572.27 416.19"
 xmlns:xlink="http://www.w3.org/1999/xlink"
 xmlns:xodm="http://www.corel.com/coreldraw/odm/2003">
 <defs>
  <style type="text/css">
   <![CDATA[
    .fil6 {fill:#461F0E}
    .fil7 {fill:#682F14}
    .fil3 {fill:#9B8E7E}
    .fil8 {fill:#A16C4A}
    .fil5 {fill:#C5C6C8}
    .fil2 {fill:#CBBBAC}
    .fil14 {fill:#D05E18}
    .fil15 {fill:#DF701E}
    .fil13 {fill:#E68328}
    .fil10 {fill:#E8D8CA}
    .fil17 {fill:#EC892E}
    .fil1 {fill:#F69A89}
    .fil16 {fill:#F9A950}
    .fil18 {fill:#FAB45E}
    .fil0 {fill:#FFC9C4}
    .fil4 {fill:#FFFDFE}
    .fil9 {fill:white}
    .fil19 {fill:#8A7A66;fill-rule:nonzero}
    .fil12 {fill:#B3A08F;fill-rule:nonzero}
    .fil11 {fill:#DADADA;fill-rule:nonzero}
   ]]>
  </style>
 </defs>
 <g id="Layer_x0020_1">
  <metadata id="CorelCorpID_0Corel-Layer"/>
  <polygon class="fil0" points="-0,416.19 0,0 572.27,0 572.27,416.19 "/>
  <path class="fil1" d="M375.13 68.78c84.43,0 152.87,68.44 152.87,152.87 0,84.43 -68.44,152.87 -152.87,152.87 -84.43,0 -152.87,-68.44 -152.87,-152.87 0,-84.43 68.44,-152.87 152.87,-152.87z"/>
  <path class="fil1" d="M74.94 152.93c0,0 -17.45,8.9 -17.7,16.14 -0.25,7.24 9.11,22.93 22.66,18.62 13.55,-4.31 25.92,-12.83 25.92,-12.83 0,0 67.44,46.15 99.97,48.34 32.53,2.19 65.7,-18.62 71.82,-45.88 6.11,-27.26 -2.01,-67.69 -24.14,-78.27 -22.13,-10.57 -70.56,-36.78 -70.56,-36.78l-107.97 90.66zm1.59 1.9c0,0 -10.04,4.74 -9.88,6.85 0.15,2.11 2.2,5.5 6.28,4.65 4.09,-0.86 11.04,-5.78 11.04,-5.78l-7.44 -5.72z"/>
  <polygon class="fil2" points="348.71,351.26 407.84,400.74 410.87,397.25 415.13,401.7 417.75,399.2 426.01,405.03 564.07,275.77 553.51,264.36 564.76,254.24 554.01,243.99 562.9,234.22 499.78,171.77 "/>
  <path class="fil3" d="M348.71 351.26l27.79 23.25c83.8,-0.73 151.51,-68.88 151.51,-152.86 0,-8.09 -0.63,-16.04 -1.85,-23.79l-26.38 -26.1 -151.07 179.49z"/>
  <path class="fil4" d="M112.15 40.28c37.7,-9.7 76.13,13 85.83,50.7 9.7,37.7 -13,76.13 -50.7,85.83 -37.7,9.7 -76.13,-13 -85.83,-50.7 -9.7,-37.7 13,-76.13 50.7,-85.83z"/>
  <path class="fil5" d="M113.82 46.94c33.74,-8.68 68.14,11.63 76.82,45.38 8.68,33.74 -11.63,68.14 -45.38,76.82 -33.74,8.68 -68.14,-11.63 -76.82,-45.38 -8.68,-33.74 11.63,-68.14 45.38,-76.82z"/>
  <path class="fil6" d="M115.47 53.18c30.57,-7.87 61.74,10.54 69.61,41.11 7.87,30.57 -10.54,61.74 -41.11,69.61 -30.57,7.87 -61.74,-10.54 -69.61,-41.11 -7.87,-30.57 10.54,-61.74 41.11,-69.61z"/>
  <path class="fil7" d="M162.52 61.73c10.78,7.55 19.02,18.83 22.56,32.57 7.87,30.57 -10.54,61.74 -41.11,69.61 -11.84,3.05 -23.77,2.15 -34.39,-1.86 -10.78,-7.55 -19.02,-18.83 -22.56,-32.57 -7.87,-30.57 10.54,-61.74 41.11,-69.61 11.84,-3.05 23.77,-2.15 34.39,1.86z"/>
  <path class="fil8" d="M180.08 107.36c0,0 -1.78,12.59 -8.75,22.89 -6.97,10.3 -11.98,15.86 -10.64,18.5 1.33,2.64 11.38,-2.55 18.82,-16.41 7.44,-13.86 2.29,-33.89 0.58,-24.99z"/>
  <path class="fil4" d="M63.02 131.35c0,0 -27.16,14.28 -30.32,17.32 -3.16,3.03 4.63,19.17 9.15,17.17 4.52,-2 30.83,-15.86 30.83,-15.86 0,0 -7.18,-9.99 -9.65,-18.63z"/>
  <path class="fil9" d="M350.43 54.25c84.43,0 152.87,68.44 152.87,152.87 0,84.43 -68.44,152.87 -152.87,152.87 -84.43,0 -152.87,-68.44 -152.87,-152.87 0,-84.43 68.44,-152.87 152.87,-152.87z"/>
  <path class="fil10" d="M198.28 222.08c-0.48,-4.92 -0.73,-9.91 -0.73,-14.95 0,-44.08 18.66,-83.8 48.51,-111.7 2.68,1.34 5.17,2.56 7.4,3.62 22.13,10.57 30.25,51.01 24.14,78.27 -6.11,27.26 -39.29,48.07 -71.82,45.88 -2.33,-0.16 -4.85,-0.55 -7.5,-1.12z"/>
  <path class="fil11" d="M350.43 52.16c42.79,0 81.53,17.35 109.58,45.39 28.04,28.04 45.39,66.79 45.39,109.58 0,42.79 -17.35,81.53 -45.39,109.58 -28.04,28.04 -66.79,45.39 -109.58,45.39 -42.79,0 -81.53,-17.35 -109.58,-45.39 -28.04,-28.04 -45.39,-66.79 -45.39,-109.58 0,-42.79 17.35,-81.53 45.39,-109.58 28.04,-28.04 66.79,-45.39 109.58,-45.39zm106.62 48.35c-27.29,-27.29 -64.98,-44.16 -106.62,-44.16 -41.64,0 -79.33,16.88 -106.62,44.16 -27.29,27.29 -44.16,64.98 -44.16,106.62 0,41.64 16.88,79.33 44.16,106.62 27.29,27.29 64.98,44.16 106.62,44.16 41.64,0 79.33,-16.88 106.62,-44.16 27.29,-27.29 44.16,-64.98 44.16,-106.62 0,-41.64 -16.88,-79.33 -44.16,-106.62z"/>
  <path class="fil12" d="M196.13 221.58c-0.44,-4.76 -0.67,-9.58 -0.67,-14.45 0,-42.79 17.35,-81.53 45.39,-109.58 1.06,-1.06 2.13,-2.09 3.21,-3.12 1.38,0.69 2.71,1.36 4,1.99 -1.44,1.33 -2.86,2.7 -4.25,4.09 -27.29,27.29 -44.16,64.98 -44.16,106.62 0,5.19 0.26,10.32 0.78,15.38 -1.39,-0.25 -2.82,-0.56 -4.29,-0.93z"/>
  <path class="fil9" d="M350.43 98.74c59.86,0 108.39,48.53 108.39,108.39 0,59.86 -48.53,108.39 -108.39,108.39 -59.86,0 -108.39,-48.53 -108.39,-108.39 0,-59.86 48.53,-108.39 108.39,-108.39z"/>
  <path class="fil10" d="M242.43 216.28c-0.25,-3.02 -0.39,-6.07 -0.39,-9.15 0,-30.68 12.75,-58.38 33.24,-78.1 4.79,15.5 5.58,33.77 2.32,48.3 -3.73,16.65 -17.56,30.89 -35.17,38.96z"/>
  <path class="fil11" d="M350.43 97.17c30.36,0 57.85,12.31 77.75,32.21 19.9,19.9 32.21,47.39 32.21,77.75 0,30.36 -12.31,57.85 -32.21,77.75 -19.9,19.9 -47.39,32.21 -77.75,32.21 -30.36,0 -57.85,-12.31 -77.75,-32.21 -19.9,-19.9 -32.21,-47.39 -32.21,-77.75 0,-30.36 12.31,-57.85 32.21,-77.75 19.9,-19.9 47.39,-32.21 77.75,-32.21zm75.53 34.43c-19.33,-19.33 -46.04,-31.29 -75.53,-31.29 -29.5,0 -56.2,11.96 -75.53,31.29 -19.33,19.33 -31.29,46.04 -31.29,75.53 0,29.5 11.96,56.2 31.29,75.53 19.33,19.33 46.04,31.29 75.53,31.29 29.5,0 56.2,-11.96 75.53,-31.29 19.33,-19.33 31.29,-46.04 31.29,-75.53 0,-29.5 -11.96,-56.2 -31.29,-75.53z"/>
  <path class="fil12" d="M240.9 216.96c-0.29,-3.24 -0.43,-6.52 -0.43,-9.83 0,-30.36 12.31,-57.85 32.21,-77.75 0.68,-0.68 1.37,-1.35 2.07,-2.01 0.37,1.1 0.71,2.22 1.04,3.36 -0.3,0.29 -0.59,0.58 -0.89,0.88 -19.33,19.33 -31.29,46.04 -31.29,75.53 0,2.84 0.11,5.66 0.33,8.44 -1,0.48 -2.01,0.95 -3.04,1.39z"/>
  <path class="fil10" d="M299.08 255.95c0,0 -9.74,10.75 -9.5,21.42 0,0 -16,12.15 -10.58,25.11 5.42,12.96 34.71,14.3 40.88,9.07 0,0 21.31,9.86 46.11,-6.13 0,0 20.58,3.91 29.93,-6.64 9.35,-10.56 13.79,-15 13.79,-15 0,0 11.7,-0.2 18.85,-12.9 7.15,-12.71 26.11,-49.2 23.7,-75.51 0,0 -0.47,-5.43 -4.98,-7.97 0,0 2.01,-19.34 -4.25,-31.79 -6.26,-12.45 -11.79,-11.63 -11.79,-11.63 0,0 -12.55,-29.75 -19.6,-33.84 -7.05,-4.09 -11.41,-4.61 -11.41,-4.61 0,0 -12.19,-17.46 -16.83,-19.84 -4.64,-2.37 -7.1,-2.34 -7.1,-2.34 0,0 -18.1,-9.17 -25.39,-2.96 -7.29,6.21 4.13,19.47 3.03,24.59 -1.1,5.12 -4.47,19.03 -3.45,24.58 0,0 -18.77,4.02 -15.78,33.4 0,0 -14.09,5.7 -20.28,24.75 -6.19,19.04 -4.6,30.8 -4.6,30.8 0,0 -18.18,23.65 -10.74,37.45z"/>
  <g id="_1959700052352">
   <path class="fil13" d="M287.91 250.71c0,0 -9.74,10.75 -9.5,21.42 0,0 -16,12.15 -10.58,25.11 5.42,12.96 34.71,14.3 40.88,9.07 0,0 21.31,9.86 46.11,-6.13 0,0 20.58,3.91 29.93,-6.64 9.35,-10.56 13.79,-15 13.79,-15 0,0 11.7,-0.2 18.85,-12.9 7.15,-12.71 26.11,-49.2 23.7,-75.51 0,0 -0.47,-5.43 -4.98,-7.97 0,0 2.01,-19.34 -4.25,-31.79 -6.26,-12.45 -11.79,-11.63 -11.79,-11.63 0,0 -12.55,-29.75 -19.6,-33.84 -7.05,-4.09 -11.41,-4.61 -11.41,-4.61 0,0 -12.19,-17.46 -16.83,-19.84 -4.64,-2.37 -7.1,-2.34 -7.1,-2.34 0,0 -18.1,-9.17 -25.39,-2.96 -7.29,6.21 4.13,19.47 3.03,24.59 -1.1,5.12 -4.47,19.03 -3.45,24.58 0,0 -18.77,4.02 -15.78,33.4 0,0 -14.09,5.7 -20.28,24.75 -6.19,19.04 -4.6,30.8 -4.6,30.8 0,0 -18.18,23.65 -10.74,37.45z"/>
   <path class="fil14" d="M280.04 306.71c8.27,2.81 18.5,3.08 24.57,1.46 -0.27,-5.05 -1.22,-14.85 -4.56,-23.95 -4.76,-12.98 -9.04,-20.17 -10.29,-20.25 -1.25,-0.08 -6.47,2.95 -6.59,4.82 -0.13,1.87 2.87,24.19 -3.14,37.92zm45.59 2.6c8.04,-0.07 18.28,-2.1 29.19,-9.14 0,0 5.56,-15.96 -8.9,-32.52 -14.46,-16.56 -31.85,-33.99 -34.24,-32.99 -2.39,1 -10.59,12.13 -6.35,17.11 4.24,4.97 16.91,25.07 18.58,34.41 1.4,7.81 3.01,15.54 1.7,23.13zm81.37 -33.29c3.45,-1.82 7.33,-4.97 10.38,-10.39 7.15,-12.71 26.11,-49.2 23.7,-75.51 0,0 -0.05,-0.61 -0.29,-1.52 -11,0.08 -29.05,-0.02 -40.98,-1.33 -18.17,-1.99 -65.36,-13.79 -69.29,-13.34 -3.92,0.46 -14.85,23.5 -13.37,27.06 1.49,3.56 29.56,15.64 59.68,33.9 30.09,18.25 30.16,41.08 30.16,41.12zm13.07 -137.29c0,0 -9.8,-23.24 -16.95,-31.46 -11.4,16.17 -41.73,23.97 -49.76,25.07 -8.03,1.1 -3.43,13.96 -2.54,15.75 0.89,1.79 4.27,7.52 33.82,5.34 29.56,-2.18 35.42,-14.71 35.42,-14.71zm-31.74 -39.47c-2.68,-3.77 -12.14,-16.79 -16.11,-18.81 -3.82,6.65 -24.41,21.97 -26.48,23.93 -2.08,1.95 -2.83,4.82 -1.96,8.54 0.87,3.72 3.36,4.08 3.36,4.08 11.9,-1.01 41.19,-17.73 41.19,-17.73zm-26.85 -22.78c-5.67,-2.31 -16.5,-5.8 -21.75,-1.33 -5.68,4.84 -0.01,13.95 2.26,20.16 6.69,-7.74 15.07,-15.11 19.49,-18.83z"/>
   <path class="fil15" d="M411.4 273.01c-0.31,-6.91 -2.43,-17.92 -11.73,-26.42 -14.66,-13.41 -34.95,-25.91 -42.16,-31.59 -7.21,-5.68 -9.16,-6.63 -8.05,-13.45 1.11,-6.82 3.44,-14.21 6.59,-16.05 3.14,-1.84 11.4,-1.17 20.75,0.87 9.35,2.04 23.74,5.37 36.21,5.23 9.13,-0.1 21.96,-0.22 28.17,-0.27 1.73,26.2 -16.76,61.79 -23.8,74.3 -1.79,3.19 -3.87,5.58 -5.98,7.39z"/>
   <path class="fil16" d="M278.41 272.12c0,0 -1.42,1.08 -3.28,2.95 0.38,5.73 0.6,17.44 -2.78,27.73 1.67,1.27 3.64,2.33 5.78,3.2 1.16,-6.8 3.73,-24.83 0.28,-33.88zm32 34.84c2.09,0.72 6,1.84 11.18,2.21 4.44,-41.71 -34.66,-72.09 -34.75,-72.15 -1.09,4.85 -1.09,9.68 1.08,13.68 14.73,15.31 22.5,56.24 22.5,56.25zm54.48 -6.1c6.57,-0.17 14.83,-1.66 19.86,-7.33 9.35,-10.56 13.79,-15 13.79,-15 -2.18,-38.31 -99.38,-78.58 -99.38,-78.58 -1.16,8.48 -0.51,13.31 -0.51,13.31 0,0 27.55,21.82 48.46,42.88 20.89,21.05 17.79,44.69 17.79,44.72zm71.21 -118.72c0,0 2.01,-19.34 -4.25,-31.79 -3.14,-6.24 -6.09,-9.15 -8.26,-10.49 0.83,30.62 -100.07,17.85 -100.07,17.85 0,0 -5.58,2.26 -11.26,8.68 11.84,1.81 30.17,4.81 44.47,8.04 23.04,5.2 79.36,7.71 79.36,7.71zm-37.51 -78.29c-3.28,-1.73 -5.84,-2.64 -7.48,-3.11 -6.67,13.54 -51.8,23.57 -51.8,23.57 0,0 -5.29,1.13 -9.81,6.59 51.69,0.02 69.09,-27.05 69.09,-27.05zm-28.74 -24.5c-3.11,-1.27 -4.73,-1.25 -4.73,-1.25 -4.04,8.45 -22.29,20.62 -22.29,20.62l-0 0c0.02,0.37 -0,0.7 -0.07,1.01 -0.17,0.79 -0.4,1.8 -0.65,2.95 12.04,-4.5 27.75,-23.33 27.75,-23.33z"/>
   <path class="fil17" d="M292.56 301.03c0,0 5.7,-1.65 6.26,-3.51 0.56,-1.86 -1.33,-9.84 -2.9,-11.85 -1.57,-2.01 -3.01,5.64 -4.36,4.63 -1.34,-1.02 -2.19,-3.66 -3.42,-2.72 -1.23,0.94 -2.56,12.55 -0.51,13.27 2.05,0.72 4.93,0.17 4.93,0.17z"/>
   <path class="fil17" d="M348.36 280.91c0,0 -7.63,9.07 -11.35,7.57 -3.72,-1.5 -10.1,-12.91 -8.74,-14.56 1.36,-1.64 5.37,3.84 7.38,2.79 2.02,-1.04 0.44,-5.46 3.14,-6.32 2.7,-0.86 11.58,7.45 9.57,10.51z"/>
   <path class="fil17" d="M414.65 250.41c2.87,-1.36 4.6,-9.65 4.5,-12.04 -0.1,-2.4 -4.04,-5.32 -2.02,-12.23 2.02,-6.91 7.47,-9.47 9.59,-14.88 2.12,-5.41 5.05,-13.03 3,-15.15 -2.05,-2.11 -9.68,-0.62 -24.39,-1.95 -14.7,-1.33 -18.25,-2.33 -22.5,-1.61 -4.25,0.72 -12.4,4.37 -9.41,8.69 2.99,4.32 12.75,5.32 22.08,7.8 9.33,2.48 12.41,7.82 11.8,13.24 -0.62,5.42 -8.33,6.33 -9.61,11.54 -1.22,4.99 14.16,17.91 16.96,16.59z"/>
   <path class="fil17" d="M349.85 185.92c0,0 -3.73,3.72 -5.6,11.46 -1.87,7.74 -2.83,12.43 -5.51,10.12 -2.68,-2.31 -3.51,-7.89 -2.06,-15.59 1.44,-7.7 6.43,-9.06 9.95,-8.75 3.52,0.31 3.22,2.77 3.22,2.77z"/>
   <path class="fil17" d="M406.18 135.7c0,0 -3.28,-12.42 -7.3,-12.61 -4.03,-0.19 -10.14,2.44 -8.61,5.43 1.53,2.99 5.2,3.48 2.73,7.11 -2.47,3.62 -7.69,5.25 -5.03,7.41 2.66,2.16 11.88,2.29 15.05,0.52 3.17,-1.76 4.17,-4.33 3.17,-7.86z"/>
   <path class="fil17" d="M377.59 97.63c-2.17,1.96 -5.46,4.45 -7.14,3.32 -1.69,-1.13 -1.42,-2.13 -4.55,-1.94 -3.13,0.19 -3.03,-1.29 -1.34,-3.28 1.7,-1.99 3.53,-5.05 7.57,-4.64 4.04,0.41 7.01,4.75 5.46,6.54z"/>
   <path class="fil18" d="M386.42 266.9c0,0 -15.75,-22.15 -29.68,-30.25 -13.93,-8.1 -34.44,-19.61 -37.18,-17.87 -2.73,1.73 27.42,25.41 36.57,34.58 9.15,9.17 15.32,25.72 19.18,27.16 3.86,1.45 14.27,-10.12 11.11,-13.62z"/>
   <path class="fil18" d="M418.11 159.81c-5.71,1.81 -17.37,5.16 -32.58,5.71 -15.21,0.55 -23.82,1.03 -24.35,3.1 -0.54,2.07 31.38,4.24 40.62,4.2 9.24,-0.03 18.82,0.2 20.41,-2.68 1.59,-2.89 -0.38,-12 -4.09,-10.33z"/>
  </g>
  <path class="fil1" d="M111.6 284.83c-15.55,17.88 6.08,32.79 20.16,13.03 10.68,-14.98 -4.56,-30.97 -20.16,-13.03z"/>
  <path class="fil7" d="M107.35 281c-15.55,17.88 6.08,32.79 20.16,13.03 10.68,-14.98 -4.56,-30.97 -20.16,-13.03z"/>
  <path class="fil6" d="M105.28 300.82c0.68,0.6 1.46,1.11 2.3,1.52 3.27,-7.62 7.98,-10.1 13.56,-15.25 3.7,-3.42 5.57,-8.32 6.47,-11.65 -0.78,-0.7 -1.67,-1.26 -2.65,-1.67 -1.85,5.25 -5.24,11.11 -11.13,14.91 -3.93,2.54 -6.78,7.87 -8.54,12.14z"/>
  <path class="fil1" d="M57.87 271.7c9.85,21.55 32.37,8.02 20.2,-12.97 -9.23,-15.91 -30.09,-8.65 -20.2,12.97z"/>
  <path class="fil7" d="M53.08 267.82c9.85,21.55 32.37,8.02 20.2,-12.97 -9.23,-15.91 -30.09,-8.65 -20.2,12.97z"/>
  <path class="fil6" d="M70.28 277.9c0.83,-0.37 1.62,-0.87 2.33,-1.47 -5.59,-6.13 -5.9,-11.45 -8.28,-18.65 -1.58,-4.78 -5.27,-8.51 -7.93,-10.7 -0.96,0.42 -1.84,0.99 -2.61,1.72 4.02,3.85 7.95,9.36 8.97,16.3 0.68,4.63 4.36,9.42 7.52,12.79z"/>
  <path class="fil1" d="M111.06 229.47c9.85,21.55 32.37,8.02 20.2,-12.97 -9.23,-15.91 -30.09,-8.65 -20.2,12.97z"/>
  <path class="fil7" d="M106.82 225.85c9.85,21.55 32.37,8.02 20.2,-12.97 -9.23,-15.91 -30.09,-8.65 -20.2,12.97z"/>
  <path class="fil6" d="M124.02 235.93c0.83,-0.37 1.62,-0.87 2.33,-1.47 -5.59,-6.13 -5.9,-11.45 -8.28,-18.65 -1.58,-4.78 -5.27,-8.51 -7.93,-10.7 -0.96,0.42 -1.84,0.99 -2.61,1.72 4.02,3.85 7.95,9.36 8.97,16.3 0.68,4.63 4.36,9.42 7.52,12.79z"/>
  <path class="fil1" d="M196.2 353.26c21.38,10.22 29.99,-14.6 7.19,-22.91 -17.28,-6.3 -28.64,12.65 -7.19,22.91z"/>
  <path class="fil7" d="M191.64 349.13c21.38,10.22 29.99,-14.6 7.19,-22.91 -17.28,-6.3 -28.64,12.65 -7.19,22.91z"/>
  <path class="fil6" d="M211.3 345.84c0.4,-0.82 0.69,-1.7 0.85,-2.62 -8.22,-1.12 -11.87,-5 -18.31,-9 -4.28,-2.66 -9.5,-3.15 -12.95,-3.13 -0.47,0.94 -0.77,1.94 -0.9,3 5.56,0.38 12.1,2.09 17.34,6.76 3.49,3.11 9.39,4.44 13.98,5z"/>
  <path class="fil1" d="M92.92 335.8c-14.98,18.36 7.11,32.59 20.56,12.39 10.2,-15.31 -5.54,-30.81 -20.56,-12.39z"/>
  <path class="fil7" d="M88.45 331.41c-14.98,18.36 7.11,32.59 20.56,12.39 10.2,-15.31 -5.54,-30.81 -20.56,-12.39z"/>
  <path class="fil6" d="M87.01 351.29c0.7,0.58 1.49,1.07 2.34,1.44 3.03,-7.72 7.66,-10.35 13.07,-15.67 3.59,-3.53 5.31,-8.49 6.1,-11.84 -0.8,-0.67 -1.7,-1.21 -2.7,-1.58 -1.68,5.31 -4.89,11.27 -10.66,15.25 -3.85,2.66 -6.53,8.08 -8.15,12.4z"/>
  <path class="fil1" d="M164.12 278.21c6.12,22.89 30.58,13.31 22.08,-9.42 -6.44,-17.23 -28.22,-13.55 -22.08,9.42z"/>
  <path class="fil7" d="M159.63 274.67c6.12,22.89 30.58,13.31 22.08,-9.42 -6.44,-17.23 -28.22,-13.55 -22.08,9.42z"/>
  <path class="fil6" d="M174.9 287.48c0.88,-0.23 1.74,-0.58 2.54,-1.06 -4.49,-6.98 -3.91,-12.27 -5.05,-19.77 -0.76,-4.98 -3.78,-9.27 -6.03,-11.88 -1.01,0.25 -1.98,0.67 -2.86,1.26 3.32,4.47 6.28,10.56 6.13,17.57 -0.1,4.68 2.73,10.02 5.28,13.87z"/>
  <polygon class="fil19" points="554.77,244.7 411.63,397.96 410.11,396.54 553.25,243.28 "/>
  <polygon class="fil19" points="553.83,265.4 418.49,399.93 417.02,398.46 552.37,263.93 "/>
  <polygon class="fil19" points="377.23,359.08 416.98,390.58 415.7,392.21 375.95,360.71 "/>
 </g>
</svg>
